<svg width="134" height="30" viewBox="0 0 134 30" fill="none" xmlns="http://www.w3.org/2000/svg">
<path d="M37.393 28.5359H31.97V1.46409H38.1677V18.2873L50.1759 1.46409H55.5989V28.5359H49.4012V11.7127L37.393 28.5359Z" fill="#3799C4"/>
<path d="M61.0235 28.5359V1.46409H78.5092V7.26519H67.2212V11.558C67.9701 11.4033 69.003 11.326 70.32 11.326C72.9541 11.326 75.0716 12.0866 76.6727 13.6077C78.2996 15.1289 79.1131 17.1529 79.1131 19.6796C79.1131 22.5157 78.1963 24.733 76.3628 26.3315C74.5293 27.93 71.934 28.7293 68.5769 28.7293C67.2341 28.7293 65.7234 28.6906 64.0448 28.6133C62.3921 28.5617 61.385 28.5359 61.0235 28.5359ZM69.8165 17.1271C69.0159 17.1271 68.1508 17.2044 67.2212 17.3591V22.7348C68.3316 22.8637 69.1063 22.9282 69.5453 22.9282C71.792 22.9282 72.9153 22 72.9153 20.1436C72.9153 19.267 72.6571 18.5451 72.1406 17.9779C71.65 17.4107 70.8753 17.1271 69.8165 17.1271Z" fill="#3799C4"/>
<path d="M89.579 28.5359H83.3813V1.46409C83.8461 1.46409 85.1502 1.4512 87.2936 1.42541C89.4628 1.39963 90.9218 1.38674 91.6707 1.38674C95.5185 1.38674 98.3075 2.23757 100.038 3.93923C101.768 5.6151 102.633 7.75506 102.633 10.3591C102.633 12.8858 101.716 15.0387 99.8827 16.8177C98.0492 18.5709 95.6218 19.4475 92.6004 19.4475C91.2317 19.4475 90.2246 19.4088 89.579 19.3315V28.5359ZM92.2905 7.18784C92.1872 7.18784 91.2834 7.21363 89.579 7.26519V13.453C90.5603 13.582 91.5029 13.6464 92.4067 13.6464C93.388 13.6464 94.2402 13.3886 94.9633 12.8729C95.6863 12.3573 96.0479 11.5064 96.0479 10.3204C96.0479 8.23204 94.7954 7.18784 92.2905 7.18784Z" fill="#3799C4"/>
<path d="M104.181 15C104.181 11.0037 105.511 7.67772 108.17 5.0221C110.856 2.3407 114.329 1 118.59 1C122.8 1 126.247 2.27624 128.933 4.82873C131.644 7.38122 133 10.7716 133 15C133 19.0737 131.631 22.4254 128.894 25.0552C126.183 27.6851 122.748 29 118.59 29C114.381 29 110.921 27.7238 108.209 25.1713C105.523 22.6188 104.181 19.2284 104.181 15ZM110.766 15C110.766 17.3204 111.527 19.267 113.051 20.8398C114.575 22.4125 116.421 23.1989 118.59 23.1989C121.069 23.1989 122.993 22.4383 124.362 20.9171C125.731 19.3702 126.415 17.3978 126.415 15C126.415 12.5764 125.666 10.6041 124.168 9.08287C122.67 7.56169 120.811 6.8011 118.59 6.8011C116.318 6.8011 114.446 7.56169 112.974 9.08287C111.502 10.5783 110.766 12.5506 110.766 15Z" fill="#3799C4"/>
<path d="M8.21168 28.5359H1L20.4249 1.46409H26.4175V28.5359H20.2198V11.7127L8.21168 28.5359Z" fill="#3799C4"/>
<path d="M37.393 28.5359H31.97V1.46409H38.1677V18.2873L50.1759 1.46409H55.5989V28.5359H49.4012V11.7127L37.393 28.5359Z" stroke="#3799C4" stroke-width="0.6"/>
<path d="M61.0235 28.5359V1.46409H78.5092V7.26519H67.2212V11.558C67.9701 11.4033 69.003 11.326 70.32 11.326C72.9541 11.326 75.0716 12.0866 76.6727 13.6077C78.2996 15.1289 79.1131 17.1529 79.1131 19.6796C79.1131 22.5157 78.1963 24.733 76.3628 26.3315C74.5293 27.93 71.934 28.7293 68.5769 28.7293C67.2341 28.7293 65.7234 28.6906 64.0448 28.6133C62.3921 28.5617 61.385 28.5359 61.0235 28.5359ZM69.8165 17.1271C69.0159 17.1271 68.1508 17.2044 67.2212 17.3591V22.7348C68.3316 22.8637 69.1063 22.9282 69.5453 22.9282C71.792 22.9282 72.9153 22 72.9153 20.1436C72.9153 19.267 72.6571 18.5451 72.1406 17.9779C71.65 17.4107 70.8753 17.1271 69.8165 17.1271Z" stroke="#3799C4" stroke-width="0.6"/>
<path d="M89.579 28.5359H83.3813V1.46409C83.8461 1.46409 85.1502 1.4512 87.2936 1.42541C89.4628 1.39963 90.9218 1.38674 91.6707 1.38674C95.5185 1.38674 98.3075 2.23757 100.038 3.93923C101.768 5.6151 102.633 7.75506 102.633 10.3591C102.633 12.8858 101.716 15.0387 99.8827 16.8177C98.0492 18.5709 95.6218 19.4475 92.6004 19.4475C91.2317 19.4475 90.2246 19.4088 89.579 19.3315V28.5359ZM92.2905 7.18784C92.1872 7.18784 91.2834 7.21363 89.579 7.26519V13.453C90.5603 13.582 91.5029 13.6464 92.4067 13.6464C93.388 13.6464 94.2402 13.3886 94.9633 12.8729C95.6863 12.3573 96.0479 11.5064 96.0479 10.3204C96.0479 8.23204 94.7954 7.18784 92.2905 7.18784Z" stroke="#3799C4" stroke-width="0.6"/>
<path d="M104.181 15C104.181 11.0037 105.511 7.67772 108.17 5.0221C110.856 2.3407 114.329 1 118.59 1C122.8 1 126.247 2.27624 128.933 4.82873C131.644 7.38122 133 10.7716 133 15C133 19.0737 131.631 22.4254 128.894 25.0552C126.183 27.6851 122.748 29 118.59 29C114.381 29 110.921 27.7238 108.209 25.1713C105.523 22.6188 104.181 19.2284 104.181 15ZM110.766 15C110.766 17.3204 111.527 19.267 113.051 20.8398C114.575 22.4125 116.421 23.1989 118.59 23.1989C121.069 23.1989 122.993 22.4383 124.362 20.9171C125.731 19.3702 126.415 17.3978 126.415 15C126.415 12.5764 125.666 10.6041 124.168 9.08287C122.67 7.56169 120.811 6.8011 118.59 6.8011C116.318 6.8011 114.446 7.56169 112.974 9.08287C111.502 10.5783 110.766 12.5506 110.766 15Z" stroke="#3799C4" stroke-width="0.6"/>
<path d="M8.21168 28.5359H1L20.4249 1.46409H26.4175V28.5359H20.2198V11.7127L8.21168 28.5359Z" stroke="#3799C4" stroke-width="0.6"/>
</svg>
