<svg width="55" height="55" viewBox="0 0 55 55" fill="none" xmlns="http://www.w3.org/2000/svg">
<g opacity="0.25">
<path d="M31.2201 15.612H23.4141V23.418H15.6081V31.2241H23.4141V39.03H31.2201V31.2241H39.0261V23.418H31.2201V15.612ZM49.7243 42.9291C52.8154 38.5031 54.642 33.1287 54.642 27.321C54.642 12.232 42.4061 0 27.321 0C12.2359 0 0 12.232 0 27.321C0 42.41 12.232 54.642 27.321 54.642C33.1287 54.642 38.507 52.8154 42.933 49.7243L49.7243 42.9291ZM27.3171 46.8399C16.5409 46.8399 7.8021 38.1049 7.8021 27.3249C7.8021 16.5448 16.5409 7.80988 27.3171 7.80988C38.0972 7.80988 46.8321 16.5448 46.8321 27.3249C46.836 38.1049 38.1011 46.8399 27.3171 46.8399Z" fill="black"/>
<path d="M15.612 23.422L15.612 31.228L23.418 31.228L23.418 39.034L31.2241 39.034L31.2241 31.228L39.03 31.228L39.03 23.422L31.2241 23.422L31.2241 15.616L23.418 15.616L23.418 23.422L15.612 23.422ZM42.9291 4.91784C38.5031 1.82666 33.1287 6.34018e-05 27.321 6.36556e-05C12.232 6.43152e-05 -1.85363e-06 12.236 -1.19424e-06 27.3211C-5.3485e-07 42.4061 12.232 54.6421 27.321 54.6421C42.41 54.6421 54.642 42.4101 54.642 27.3211C54.642 21.5134 52.8154 16.1351 49.7242 11.7091L42.9291 4.91784ZM46.8399 27.325C46.8399 38.1012 38.1049 46.84 27.3249 46.84C16.5448 46.84 7.80988 38.1012 7.80988 27.325C7.80988 16.5449 16.5448 7.81 27.3249 7.81C38.1049 7.80609 46.8399 16.541 46.8399 27.325Z" fill="#104C65"/>
</g>
</svg>
