<svg id="Слой_1" data-name="Слой 1" xmlns="http://www.w3.org/2000/svg" viewBox="0 0 263.89526 93.45666">
  <defs>
    <style>
      .cls-1 {
        fill: #fff;
      }
    </style>
  </defs>
  <path class="cls-1" d="M50.45266,20.94816l-24.25,49.32006h9.91l14.34-31.40134,9.66,20.9988h9.51Z"/>
  <path class="cls-1" d="M75.91262,70.25852h9.91l15.18-31.382V20.95783Z"/>
  <path class="cls-1" d="M195.98262,27.9802a27.01423,27.01423,0,0,1,36.36,0,23.321,23.321,0,0,1,7.35,17.60878A24.4874,24.4874,0,0,1,229.5579,65.717a26.11268,26.11268,0,0,1-35.80526-4.805h14.37a16.83985,16.83985,0,0,0,6,.96858,14.7255,14.7255,0,0,0,11.21-4.51358q4.28-4.4361,4.28-11.77793t-4.27-11.807a16.37236,16.37236,0,0,0-22.44,0q-4.27,4.45546-4.27,11.807c0,4.32955.32,6.78005,2.64,9.68579h-10.77c-1.58-3.24474-1.87-5.68556-1.87-9.68579A23.321,23.321,0,0,1,195.98262,27.9802Z"/>
  <path class="cls-1" d="M122.66006,20.95786v8.94c.15-.0097.31-.01939.46-.01939.24-.06781,1.59-.06781,4.07-.06781h22V20.95786h-26.53Z"/>
  <path class="cls-1" d="M185.01265,29.41319a14.42542,14.42542,0,0,0-4.55-5.15q-4.665-3.3-14.16-3.31h-12.7v8.86h13.36c6.82,0,10.23,2.21,10.23,6.6a5.007,5.007,0,0,1-1.15,3.38995,9.22564,9.22564,0,0,1-2.19,1.69,9.46766,9.46766,0,0,1-2.56.77,31.6661,31.6661,0,0,1-4.13.21h-4.14v-6.068h-9.42v33.888h9.42v-18.97c14.17,1.1,20.08-4.1,22.43006-9.69a13.289,13.289,0,0,0,1.17-5.65A14.23946,14.23946,0,0,0,185.01265,29.41319Z"/>
  <path class="cls-1" d="M147.9569,49.61827c-2.4684-5.58854-8.68769-10.78829-23.60242-9.6858V20.95786h-9.40711V70.29744h12.85856q9.986,0,14.90013-3.30286a14.68336,14.68336,0,0,0,4.78783-5.15284,13.59564,13.59564,0,0,0,1.69416-6.567A12.63561,12.63561,0,0,0,147.9569,49.61827ZM128.50043,61.44463h-4.14595V48.78529h4.3564a34.93275,34.93275,0,0,1,4.34587.2034,10.52068,10.52068,0,0,1,2.69381.77486,9.62742,9.62742,0,0,1,2.30447,1.68533,4.86189,4.86189,0,0,1,1.21011,3.39Q139.26516,61.43494,128.50043,61.44463Z"/>
  <rect class="cls-1" x="72.91262" y="20.94816" width="9.88" height="49.31036"/>
  <rect class="cls-1" x="101.00264" y="20.94816" width="9.88" height="49.32006"/>
</svg>
